<svg
        width="22"
        height="22"
        viewBox="0 0 22 22"
        fill="none"
        xmlns="http://www.w3.org/2000/svg"
>
    <path
            d="M13.1139 2.30915C13.1295 2.20839 13.1376 2.10514 13.1376 2C13.1376 0.895431 12.2422 0 11.1376 0C10.0331 0 9.13762 0.895431 9.13762 2C9.13762 2.08805 9.14331 2.17478 9.15435 2.25982C6.23933 3.07819 4.09088 5.73736 4.05114 8.91184L4.01659 11.6717C4.00593 12.5233 3.66287 13.3371 3.06062 13.9393L2.82843 14.1715C2.29798 14.702 1.99998 15.4215 2 16.1716C2.00005 17.7337 3.26638 19 4.82845 19H11.1377H17.1714C18.7335 19 19.9998 17.7337 19.9998 16.1715C19.9998 15.4214 19.7019 14.702 19.1715 14.1716L18.9478 13.9479C18.3417 13.3418 18.006 12.5167 18.0167 11.6596L18.0489 9.08707C18.0888 5.90594 16.0014 3.19876 13.1139 2.30915ZM6.05098 8.93688L6.01643 11.6967C5.99924 13.0701 5.44603 14.3824 4.47484 15.3536L4.24265 15.5857C4.08728 15.7411 3.99999 15.9518 4 16.1716C4.00001 16.6291 4.37092 17 4.82845 17H11.1377H17.1714C17.6289 17 17.9998 16.6291 17.9998 16.1715C17.9998 15.9518 17.9126 15.7411 17.7572 15.5857L17.5336 15.3621C16.5463 14.3748 15.9994 13.0307 16.0169 11.6345L16.0491 9.06203C16.084 6.27666 13.8356 4 11.05 4C8.31333 4 6.08524 6.20038 6.05098 8.93688ZM8.1376 21C8.1376 20.4477 8.58531 20 9.1376 20H13.1376C13.6899 20 14.1376 20.4477 14.1376 21C14.1376 21.5523 13.6899 22 13.1376 22H9.1376C8.58531 22 8.1376 21.5523 8.1376 21Z"
            fill="white"
    />
</svg>