<svg width="20" height="20" viewBox="0 0 20 20" fill="none" xmlns="http://www.w3.org/2000/svg">
<path d="M5.35749 15.7271L6.05061 16.0977C7.12474 16.672 8.32427 16.9715 9.54227 16.9697L9.54546 16.9697C13.6459 16.9697 16.9697 13.6459 16.9697 9.54545C16.9697 5.44501 13.6459 2.12121 9.54546 2.12121C5.44502 2.12121 2.12122 5.44501 2.12122 9.54545V9.54864C2.11939 10.7666 2.41895 11.9662 2.99321 13.0403L3.36376 13.7334L2.79399 16.2969L5.35749 15.7271ZM3.06827 18.4089C1.63922 18.7266 0.364348 17.4517 0.681976 16.0226L1.12256 14.0404C0.383291 12.6576 -0.00234995 11.1134 1.07735e-05 9.54545C1.07735e-05 4.2735 4.27351 0 9.54546 0C14.8174 0 19.0909 4.2735 19.0909 9.54545C19.0909 14.8174 14.8174 19.0909 9.54546 19.0909C7.97748 19.0933 6.43328 18.7076 5.05051 17.9684L3.06827 18.4089Z" fill="#F7F7F8"/>
</svg>
