<svg width="24" height="25" viewBox="0 0 24 25" fill="none" xmlns="http://www.w3.org/2000/svg">
<g clip-path="url(#clip0_8873_7073)">
<path d="M0.566625 8.77958C0.199031 9.9312 -4.68667e-05 11.1581 8.276e-09 12.4316C-4.68667e-05 13.7052 0.199078 14.9322 0.566672 16.0838L12 16.6056L23.4333 16.0839C23.8009 14.9322 24 13.7052 24 12.4317C24 11.1581 23.8009 9.9312 23.4333 8.77953L12 8.25781L0.566625 8.77958Z" fill="#F0F0F0"/>
<path d="M23.4332 8.77953L11.9999 8.25781L0.5665 8.77953C0.457563 9.12097 0.363766 9.46911 0.285156 9.82302H23.7144C23.6359 9.46906 23.5421 9.12088 23.4332 8.77953Z" fill="#D80027"/>
<path d="M0.285156 15.04C0.363672 15.3939 0.457469 15.742 0.566406 16.0835L0.567531 16.0835L11.9997 16.6052L23.433 16.0835C23.542 15.7421 23.6357 15.3939 23.7143 15.04H0.285156Z" fill="#D80027"/>
<path d="M12.0002 24.4318C17.354 24.4318 21.8883 20.9254 23.4335 16.084H0.566895C2.11213 20.9254 6.64644 24.4318 12.0002 24.4318Z" fill="#6DA544"/>
<path d="M11.9997 0.431641C6.64595 0.431688 2.11173 3.93808 0.566406 8.77947L23.433 8.77952C21.8879 3.93803 17.3536 0.431594 11.9997 0.431641Z" fill="#338AF3"/>
<path d="M5.48376 5.38782C5.48376 4.2639 6.27365 3.32499 7.32848 3.09465C7.16638 3.05921 6.99815 3.04004 6.82537 3.04004C5.52871 3.04004 4.47754 4.09116 4.47754 5.38787C4.47754 6.68457 5.52862 7.7357 6.82537 7.7357C6.99815 7.7357 7.16634 7.71648 7.32848 7.68109C6.2737 7.45065 5.48376 6.51174 5.48376 5.38782Z" fill="#F0F0F0"/>
<path d="M8.71628 6.45508L8.87519 6.94422H9.3895L8.97344 7.24656L9.13234 7.7357L8.71628 7.43341L8.30012 7.7357L8.45908 7.24656L8.04297 6.94422H8.55728L8.71628 6.45508Z" fill="#F0F0F0"/>
<path d="M10.3578 6.45508L10.5167 6.94422H11.0311L10.6149 7.24656L10.7739 7.7357L10.3578 7.43341L9.94168 7.7357L10.1006 7.24656L9.68457 6.94422H10.1988L10.3578 6.45508Z" fill="#F0F0F0"/>
<path d="M11.9995 6.45508L12.1584 6.94422H12.6727L12.2566 7.24656L12.4155 7.7357L11.9995 7.43341L11.5833 7.7357L11.7423 7.24656L11.3262 6.94422H11.8405L11.9995 6.45508Z" fill="#F0F0F0"/>
<path d="M13.6411 6.45508L13.8 6.94422H14.3143L13.8982 7.24656L14.0572 7.7357L13.6411 7.43341L13.2249 7.7357L13.3839 7.24656L12.9678 6.94422H13.4821L13.6411 6.45508Z" fill="#F0F0F0"/>
<path d="M15.2826 6.45508L15.4415 6.94422H15.9559L15.5398 7.24656L15.6988 7.7357L15.2826 7.43341L14.8665 7.7357L15.0254 7.24656L14.6094 6.94422H15.1236L15.2826 6.45508Z" fill="#F0F0F0"/>
<path d="M10.3578 4.74805L10.5167 5.23714H11.0311L10.6149 5.53953L10.7739 6.02862L10.3578 5.72633L9.94168 6.02862L10.1006 5.53953L9.68457 5.23714H10.1988L10.3578 4.74805Z" fill="#F0F0F0"/>
<path d="M11.9995 4.74805L12.1584 5.23714H12.6727L12.2566 5.53953L12.4155 6.02862L11.9995 5.72633L11.5833 6.02862L11.7423 5.53953L11.3262 5.23714H11.8405L11.9995 4.74805Z" fill="#F0F0F0"/>
<path d="M13.6411 4.74805L13.8 5.23714H14.3143L13.8982 5.53953L14.0572 6.02862L13.6411 5.72633L13.2249 6.02862L13.3839 5.53953L12.9678 5.23714H13.4821L13.6411 4.74805Z" fill="#F0F0F0"/>
<path d="M15.2826 4.74805L15.4415 5.23714H15.9559L15.5398 5.53953L15.6988 6.02862L15.2826 5.72633L14.8665 6.02862L15.0254 5.53953L14.6094 5.23714H15.1236L15.2826 4.74805Z" fill="#F0F0F0"/>
<path d="M11.9995 3.04004L12.1584 3.52923H12.6727L12.2566 3.83152L12.4155 4.32071L11.9995 4.01841L11.5833 4.32071L11.7423 3.83152L11.3262 3.52923H11.8405L11.9995 3.04004Z" fill="#F0F0F0"/>
<path d="M13.6411 3.04004L13.8 3.52923H14.3143L13.8982 3.83152L14.0572 4.32071L13.6411 4.01841L13.2249 4.32071L13.3839 3.83152L12.9678 3.52923H13.4821L13.6411 3.04004Z" fill="#F0F0F0"/>
<path d="M15.2826 3.04004L15.4415 3.52923H15.9559L15.5398 3.83152L15.6988 4.32071L15.2826 4.01841L14.8665 4.32071L15.0254 3.83152L14.6094 3.52923H15.1236L15.2826 3.04004Z" fill="#F0F0F0"/>
</g>
<defs>
<clipPath id="clip0_8873_7073">
<rect width="24" height="24" fill="white" transform="translate(0 0.431641)"/>
</clipPath>
</defs>
</svg>
