<svg width="32" height="33" viewBox="0 0 32 33" fill="none" xmlns="http://www.w3.org/2000/svg">
<g clip-path="url(#clip0_6510_74053)">
<path d="M0.7555 11.3275C0.265375 12.863 -6.2489e-05 14.4988 1.10347e-08 16.1969C-6.2489e-05 17.895 0.265437 19.531 0.755562 21.0665L16 21.7622L31.2444 21.0666C31.7345 19.531 32.0001 17.895 32.0001 16.197C32 14.4989 31.7346 12.863 31.2444 11.3275L16 10.6318L0.7555 11.3275Z" fill="#F0F0F0"/>
<path d="M31.2444 11.3275L16 10.6318L0.755496 11.3275C0.610246 11.7827 0.485184 12.2469 0.380371 12.7188H31.6194C31.5147 12.2468 31.3897 11.7826 31.2444 11.3275Z" fill="#D80027"/>
<path d="M0.380615 19.6748C0.485303 20.1467 0.610365 20.6108 0.755615 21.0661L0.757115 21.0661L16 21.7617L31.2444 21.0661C31.3897 20.6109 31.5147 20.1467 31.6195 19.6748H0.380615Z" fill="#D80027"/>
<path d="M16 32.1968C23.1385 32.1968 29.1841 27.5217 31.2444 21.0664H0.755615C2.81593 27.5216 8.86168 32.1968 16 32.1968Z" fill="#6DA544"/>
<path d="M15.9999 0.197266C8.86156 0.197328 2.81593 4.87252 0.755493 11.3277L31.2443 11.3278C29.1841 4.87245 23.1384 0.197203 15.9999 0.197266Z" fill="#338AF3"/>
<path d="M7.3116 6.80616C7.3116 5.30759 8.36478 4.05572 9.77122 3.74859C9.5551 3.70134 9.33078 3.67578 9.10041 3.67578C7.37153 3.67578 5.96997 5.07728 5.96997 6.80622C5.96997 8.53516 7.37141 9.93666 9.10041 9.93666C9.33078 9.93666 9.55503 9.91103 9.77122 9.86384C8.36485 9.55659 7.3116 8.30472 7.3116 6.80616Z" fill="#F0F0F0"/>
<path d="M11.6215 8.22949L11.8334 8.88168H12.5191L11.9644 9.2848L12.1763 9.93699L11.6215 9.53393L11.0666 9.93699L11.2786 9.2848L10.7238 8.88168H11.4095L11.6215 8.22949Z" fill="#F0F0F0"/>
<path d="M13.8102 8.22949L14.0222 8.88168H14.7079L14.1531 9.2848L14.365 9.93699L13.8102 9.53393L13.2554 9.93699L13.4673 9.2848L12.9126 8.88168H13.5983L13.8102 8.22949Z" fill="#F0F0F0"/>
<path d="M15.9991 8.22949L16.2109 8.88168H16.8968L16.3419 9.2848L16.5538 9.93699L15.9991 9.53393L15.4442 9.93699L15.6562 9.2848L15.1013 8.88168H15.7871L15.9991 8.22949Z" fill="#F0F0F0"/>
<path d="M18.1878 8.22949L18.3997 8.88168H19.0854L18.5307 9.2848L18.7426 9.93699L18.1878 9.53393L17.6329 9.93699L17.8449 9.2848L17.29 8.88168H17.9758L18.1878 8.22949Z" fill="#F0F0F0"/>
<path d="M20.3766 8.22949L20.5886 8.88168H21.2743L20.7196 9.2848L20.9315 9.93699L20.3766 9.53393L19.8218 9.93699L20.0338 9.2848L19.479 8.88168H20.1647L20.3766 8.22949Z" fill="#F0F0F0"/>
<path d="M13.8102 5.95215L14.0222 6.60427H14.7079L14.1531 7.00746L14.365 7.65959L13.8102 7.25652L13.2554 7.65959L13.4673 7.00746L12.9126 6.60427H13.5983L13.8102 5.95215Z" fill="#F0F0F0"/>
<path d="M15.9991 5.95215L16.2109 6.60427H16.8968L16.3419 7.00746L16.5538 7.65959L15.9991 7.25652L15.4442 7.65959L15.6562 7.00746L15.1013 6.60427H15.7871L15.9991 5.95215Z" fill="#F0F0F0"/>
<path d="M18.1878 5.95215L18.3997 6.60427H19.0854L18.5307 7.00746L18.7426 7.65959L18.1878 7.25652L17.6329 7.65959L17.8449 7.00746L17.29 6.60427H17.9758L18.1878 5.95215Z" fill="#F0F0F0"/>
<path d="M20.3766 5.95215L20.5886 6.60427H21.2743L20.7196 7.00746L20.9315 7.65959L20.3766 7.25652L19.8218 7.65959L20.0338 7.00746L19.479 6.60427H20.1647L20.3766 5.95215Z" fill="#F0F0F0"/>
<path d="M15.9991 3.67578L16.2109 4.32803H16.8968L16.3419 4.73109L16.5538 5.38334L15.9991 4.98028L15.4442 5.38334L15.6562 4.73109L15.1013 4.32803H15.7871L15.9991 3.67578Z" fill="#F0F0F0"/>
<path d="M18.1878 3.67578L18.3997 4.32803H19.0854L18.5307 4.73109L18.7426 5.38334L18.1878 4.98028L17.6329 5.38334L17.8449 4.73109L17.29 4.32803H17.9758L18.1878 3.67578Z" fill="#F0F0F0"/>
<path d="M20.3766 3.67578L20.5886 4.32803H21.2743L20.7196 4.73109L20.9315 5.38334L20.3766 4.98028L19.8218 5.38334L20.0338 4.73109L19.479 4.32803H20.1647L20.3766 3.67578Z" fill="#F0F0F0"/>
</g>
<defs>
<clipPath id="clip0_6510_74053">
<rect width="32" height="32" fill="white" transform="translate(0 0.197266)"/>
</clipPath>
</defs>
</svg>
