<svg width="24" height="24" viewBox="0 0 24 24" fill="none" xmlns="http://www.w3.org/2000/svg">
<path d="M22.1467 18.2412L12.8077 23.4246C12.3596 23.6733 11.6265 23.6733 11.1785 23.4246L1.83948 18.2412C1.61547 18.1169 1.50348 17.953 1.50348 17.7891H1.4043V6.20996H22.4827V17.7891C22.4827 17.953 22.3707 18.1169 22.1467 18.2412Z" fill="#4059E6"/>
<path d="M22.4833 6.21001V17.7892C22.4833 17.9531 22.3713 18.117 22.1473 18.2413L12.8082 23.4247C12.5753 23.5539 12.2653 23.6155 11.9583 23.6102C11.9656 17.812 12.1304 12.0065 11.9502 6.20996L22.4833 6.21001Z" fill="#6E84FF"/>
<path d="M11.1789 11.8461L1.83993 6.66274C1.3919 6.41407 1.3919 6.00719 1.83993 5.75852L11.1789 0.575176C11.627 0.326504 12.3601 0.326504 12.8081 0.575176L22.1471 5.75857C22.5951 6.00724 22.5951 6.41411 22.1471 6.66278L12.8081 11.8461C12.3601 12.0948 11.627 12.0948 11.1789 11.8461Z" fill="#CEFFC8"/>
<path d="M11.1789 11.8461L1.83993 6.66274C1.3919 6.41407 1.3919 6.00719 1.83993 5.75852L11.1789 0.575176C11.627 0.326504 12.3601 0.326504 12.8081 0.575176L22.1471 5.75857C22.5951 6.00724 22.5951 6.41411 22.1471 6.66278L12.8081 11.8461C12.3601 12.0948 11.627 12.0948 11.1789 11.8461Z" fill="#FFD7AD"/>
<path d="M11.1789 11.8461L1.83993 6.66274C1.3919 6.41407 1.3919 6.00719 1.83993 5.75852L11.1789 0.575176C11.627 0.326504 12.3601 0.326504 12.8081 0.575176L22.1471 5.75857C22.5951 6.00724 22.5951 6.41411 22.1471 6.66278L12.8081 11.8461C12.3601 12.0948 11.627 12.0948 11.1789 11.8461Z" fill="#9BAAFF"/>
<path d="M18.3325 3.47411C18.332 3.52891 18.3168 3.58256 18.2884 3.62943C18.26 3.67629 18.2195 3.71463 18.1712 3.74041L6.98143 9.70502C6.96602 9.71323 6.94993 9.7201 6.93334 9.72555L6.89551 9.74669V20.8781C6.89551 20.9311 6.88167 20.9833 6.85534 21.0293C6.82901 21.0754 6.79112 21.1138 6.74541 21.1407C6.6997 21.1676 6.64775 21.1821 6.5947 21.1828C6.54166 21.1835 6.48936 21.1703 6.44298 21.1445L4.56798 20.1039C4.52044 20.0775 4.48083 20.0389 4.45325 19.992C4.42567 19.9452 4.41113 19.8918 4.41113 19.8374V9.00531C4.41118 8.81944 4.45296 8.63595 4.53338 8.46838C4.61381 8.30081 4.73082 8.15343 4.8758 8.03711L4.88687 8.02849C4.91143 8.00927 4.93473 7.99235 4.95868 7.97617C4.99427 7.952 5.03107 7.92966 5.06893 7.90924L15.9317 2.11886C15.9766 2.09494 16.0268 2.08263 16.0777 2.08307C16.1285 2.0835 16.1785 2.09666 16.2229 2.12135L18.1757 3.20514C18.2236 3.23174 18.2634 3.27075 18.291 3.31809C18.3186 3.36542 18.333 3.41932 18.3325 3.47411ZM19.3644 8.1865C19.2935 8.10565 19.2123 8.03437 19.123 7.97449C19.1172 7.9705 19.1113 7.96652 19.1044 7.96202C19.0754 7.94312 19.0456 7.92546 19.0151 7.9091L8.15237 2.11881C8.10748 2.09489 8.05732 2.08258 8.00646 2.08302C7.9556 2.08345 7.90565 2.09661 7.86118 2.1213L5.90841 3.2051C5.86048 3.23168 5.82061 3.27069 5.793 3.31804C5.76538 3.36538 5.75106 3.4193 5.75152 3.4741C5.75199 3.52891 5.76723 3.58258 5.79564 3.62944C5.82405 3.67631 5.86458 3.71465 5.91296 3.74041L17.1027 9.70502C17.1183 9.7133 17.1344 9.72016 17.1508 9.7256L17.1886 9.74674V20.8781C17.1886 20.9312 17.2024 20.9833 17.2288 21.0294C17.2551 21.0754 17.293 21.1138 17.3387 21.1407C17.3844 21.1676 17.4364 21.1822 17.4894 21.1828C17.5424 21.1835 17.5947 21.1703 17.6411 21.1446L19.5161 20.1039C19.5637 20.0775 19.6033 20.0389 19.6309 19.9921C19.6584 19.9452 19.673 19.8918 19.673 19.8375V9.00531C19.6728 8.70398 19.5631 8.41297 19.3644 8.1865Z" fill="#DFE4FF"/>
<path d="M15.7309 6.42579C15.7309 7.19037 14.7932 7.74527 13.5011 7.74527C12.9742 7.74527 12.5064 7.65288 12.1369 7.49173C12.0897 7.47124 12.0386 7.46141 11.9872 7.46294C11.9358 7.46447 11.8853 7.47733 11.8395 7.50059C11.4544 7.69493 10.9438 7.80818 10.3607 7.80818C9.06864 7.80818 8.13086 7.25327 8.13086 6.4887C8.13086 6.10376 8.36861 5.77202 8.76958 5.53741C8.92755 5.44502 8.99388 5.24782 8.91564 5.0824C8.62984 4.47799 8.63903 3.91095 8.98956 3.56041C9.17111 3.37887 9.41973 3.28291 9.70863 3.28291C9.91159 3.28291 10.132 3.33087 10.3585 3.42091C10.4455 3.45561 10.5426 3.4547 10.629 3.41838C10.7153 3.38205 10.7839 3.31322 10.8199 3.22676C11.0526 2.67124 11.4377 2.3291 11.8994 2.3291C12.3533 2.3291 12.7332 2.65962 12.967 3.19849C13.0447 3.37737 13.2496 3.46273 13.4298 3.38834C13.6664 3.2907 13.897 3.23848 14.1086 3.23848C14.4736 3.23848 14.7011 3.38937 14.8277 3.51598C15.1723 3.86055 15.1871 4.41429 14.9161 5.00712C14.84 5.17343 14.9074 5.37021 15.0666 5.46016C15.483 5.69538 15.7309 6.03284 15.7309 6.42579Z" fill="#687EFB"/>
</svg>
