<svg width="81" height="80" viewBox="0 0 81 80" fill="none" xmlns="http://www.w3.org/2000/svg">
<path d="M34.2001 11.7162L40.0049 5.91143L45.8097 11.7162H51.7211L42.9552 2.96105L40.0049 0L37.0546 2.96105L28.2887 11.7162H34.2001Z" fill="white"/>
<path d="M11.7162 45.8111L5.91133 40.0062L11.7162 34.2012V28.29L0 40.0062L2.96099 42.9566L11.7162 51.7225V45.8111Z" fill="white"/>
<path d="M45.8097 68.2838L40.0049 74.0995L34.2001 68.2838H28.2887L40.0049 80L51.7211 68.2838H45.8097Z" fill="white"/>
<path d="M68.2947 28.29V34.2012L74.0995 40.0062L68.2947 45.8111V51.7225L77.0498 42.9566L80.0108 40.0062L68.2947 28.29Z" fill="white"/>
<path d="M11.7266 11.7162V68.2843H68.2943V11.7162H11.7266ZM32.9754 15.9021H39.0039V21.9308H32.9754V15.9021ZM23.9327 15.9021H27.9481V35.9902H44.0206V15.9021H56.0669V19.9176H48.036V40.0057H23.9327V15.9021ZM35.9897 64.1091H15.8911V15.8914H19.9066V44.0212H52.0514V23.9331H56.0669V48.0367H35.9897V64.1091ZM46.0336 64.1091H40.0051V58.0807H46.0336V64.1091ZM56.0775 64.1091H50.0491V58.0807H56.0775V64.1091ZM64.1084 64.1091H60.093V15.8914H64.1084V64.1091Z" fill="white"/>
<path d="M31.9747 48.0362H19.9177V59.9867H31.9747V48.0362Z" fill="white"/>
</svg>
