<svg
        width="85"
        height="75"
        viewBox="0 0 85 75"
        fill="none"
        xmlns="http://www.w3.org/2000/svg"
>
    <path
            d="M26.4256 5.29893C28.4443 3.43576 31.5557 3.43576 33.5744 5.29893L34.8398 6.46678C36.0482 7.58203 37.7078 8.06935 39.3273 7.78444L41.0232 7.4861C43.7288 7.01012 46.3462 8.69223 47.0372 11.351L47.4703 13.0176C47.8839 14.6091 49.0167 15.9164 50.5331 16.5523L52.1211 17.2181C54.6545 18.2805 55.947 21.1106 55.0908 23.7209L54.5541 25.3571C54.0416 26.9196 54.2878 28.6317 55.2197 29.9865L56.1956 31.4052C57.7525 33.6686 57.3097 36.7482 55.1782 38.4813L53.8422 39.5675C52.5663 40.6049 51.8478 42.1783 51.8993 43.8219L51.9533 45.543C52.0393 48.2888 50.0019 50.6401 47.2718 50.9457L45.5605 51.1372C43.9264 51.3201 42.4712 52.2553 41.626 53.6658L40.7409 55.1428C39.3288 57.4993 36.3435 58.3758 33.8816 57.1569L32.3385 56.3929C30.8649 55.6632 29.1351 55.6632 27.6615 56.3929L26.1184 57.1569C23.6565 58.3758 20.6712 57.4993 19.2591 55.1428L18.374 53.6658C17.5288 52.2553 16.0736 51.3201 14.4395 51.1372L12.7282 50.9457C9.99814 50.6401 7.96066 48.2888 8.04675 45.543L8.10071 43.8219C8.15223 42.1783 7.43368 40.6049 6.15781 39.5675L4.82176 38.4813C2.69027 36.7482 2.24748 33.6686 3.80438 31.4052L4.78026 29.9865C5.71219 28.6317 5.95836 26.9196 5.44587 25.3571L4.90921 23.7209C4.05304 21.1106 5.34553 18.2805 7.87894 17.2181L9.46691 16.5523C10.9834 15.9164 12.1161 14.6091 12.5297 13.0176L12.9628 11.351C13.6538 8.69223 16.2712 7.01012 18.9768 7.4861L20.6727 7.78444C22.2922 8.06935 23.9518 7.58203 25.1602 6.46678L26.4256 5.29893Z"
            fill="#626262"
    />
    <path
            opacity="0.1"
            d="M51.4256 14.2989C53.4443 12.4358 56.5557 12.4358 58.5744 14.2989L59.8398 15.4668C61.0482 16.582 62.7078 17.0693 64.3273 16.7844L66.0232 16.4861C68.7288 16.0101 71.3462 17.6922 72.0372 20.351L72.4703 22.0176C72.8839 23.6091 74.0167 24.9164 75.5331 25.5523L77.1211 26.2181C79.6545 27.2805 80.947 30.1106 80.0908 32.7209L79.5541 34.3571C79.0416 35.9196 79.2878 37.6317 80.2197 38.9865L81.1956 40.4052C82.7525 42.6686 82.3097 45.7482 80.1782 47.4813L78.8422 48.5675C77.5663 49.6049 76.8478 51.1783 76.8993 52.8219L76.9533 54.543C77.0393 57.2888 75.0019 59.6401 72.2718 59.9457L70.5605 60.1372C68.9264 60.3201 67.4712 61.2553 66.626 62.6658L65.7409 64.1428C64.3288 66.4993 61.3435 67.3758 58.8816 66.1569L57.3385 65.3929C55.8649 64.6632 54.1351 64.6632 52.6615 65.3929L51.1184 66.1569C48.6565 67.3758 45.6712 66.4993 44.2591 64.1428L43.374 62.6658C42.5288 61.2553 41.0736 60.3201 39.4395 60.1372L37.7282 59.9457C34.9981 59.6401 32.9607 57.2888 33.0467 54.543L33.1007 52.8219C33.1522 51.1783 32.4337 49.6049 31.1578 48.5675L29.8218 47.4813C27.6903 45.7482 27.2475 42.6686 28.8044 40.4052L29.7803 38.9865C30.7122 37.6317 30.9584 35.9196 30.4459 34.3571L29.9092 32.7209C29.053 30.1106 30.3455 27.2805 32.8789 26.2181L34.4669 25.5523C35.9834 24.9164 37.1161 23.6091 37.5297 22.0176L37.9628 20.351C38.6538 17.6922 41.2712 16.0101 43.9768 16.4861L45.6727 16.7844C47.2922 17.0693 48.9518 16.582 50.1602 15.4668L51.4256 14.2989Z"
            fill="#7E7E7E"
    />
    <g filter="url(#filter0_bd_5918_65977)">
        <circle
                cx="40.5"
                cy="33.5"
                r="22.5"
                fill="white"
                fill-opacity="0.1"
                shape-rendering="crispEdges"
        />
        <circle
                cx="40.5"
                cy="33.5"
                r="22.7766"
                stroke="url(#paint0_linear_5918_65977)"
                stroke-width="0.55313"
                shape-rendering="crispEdges"
        />
    </g>
    <g clip-path="url(#clip0_5918_65977)">
        <path
                d="M32.875 33.125C32.875 34.2577 33.0981 35.3792 33.5315 36.4256C33.965 37.4721 34.6003 38.4229 35.4012 39.2238C36.2021 40.0247 37.1529 40.66 38.1994 41.0935C39.2458 41.5269 40.3673 41.75 41.5 41.75C42.6327 41.75 43.7542 41.5269 44.8006 41.0935C45.8471 40.66 46.7979 40.0247 47.5988 39.2238C48.3997 38.4229 49.035 37.4721 49.4685 36.4256C49.9019 35.3792 50.125 34.2577 50.125 33.125C50.125 31.9923 49.9019 30.8708 49.4685 29.8244C49.035 28.7779 48.3997 27.8271 47.5988 27.0262C46.7979 26.2253 45.8471 25.59 44.8006 25.1565C43.7542 24.7231 42.6327 24.5 41.5 24.5C40.3673 24.5 39.2458 24.7231 38.1994 25.1565C37.1529 25.59 36.2021 26.2253 35.4012 27.0262C34.6003 27.8271 33.965 28.7779 33.5315 29.8244C33.0981 30.8708 32.875 31.9923 32.875 33.125Z"
                stroke="white"
                stroke-width="2"
                stroke-linecap="round"
                stroke-linejoin="round"
        />
        <path
                d="M38.5 31.5H38.51"
                stroke="white"
                stroke-width="2.66667"
                stroke-linecap="round"
                stroke-linejoin="round"
        />
        <path
                d="M44.5 31.5H44.51"
                stroke="white"
                stroke-width="2.66667"
                stroke-linecap="round"
                stroke-linejoin="round"
        />
        <path
                d="M39 36.7497C39.3259 36.4171 39.7148 36.1529 40.1441 35.9725C40.5734 35.7921 41.0344 35.6992 41.5 35.6992C41.9656 35.6992 42.4266 35.7921 42.8559 35.9725C43.2852 36.1529 43.6741 36.4171 44 36.7497"
                stroke="white"
                stroke-width="2"
                stroke-linecap="round"
                stroke-linejoin="round"
        />
    </g>
    <defs>
        <filter
                id="filter0_bd_5918_65977"
                x="3.44687"
                y="0.447266"
                width="74.1063"
                height="74.1055"
                filterUnits="userSpaceOnUse"
                color-interpolation-filters="sRGB"
        >
            <feFlood flood-opacity="0" result="BackgroundImageFix" />
            <feGaussianBlur
                    in="BackgroundImageFix"
                    stdDeviation="4.14848"
            />
            <feComposite
                    in2="SourceAlpha"
                    operator="in"
                    result="effect1_backgroundBlur_5918_65977"
            />
            <feColorMatrix
                    in="SourceAlpha"
                    type="matrix"
                    values="0 0 0 0 0 0 0 0 0 0 0 0 0 0 0 0 0 0 127 0"
                    result="hardAlpha"
            />
            <feOffset dy="4" />
            <feGaussianBlur stdDeviation="7" />
            <feComposite in2="hardAlpha" operator="out" />
            <feColorMatrix
                    type="matrix"
                    values="0 0 0 0 0 0 0 0 0 0 0 0 0 0 0 0 0 0 0.25 0"
            />
            <feBlend
                    mode="normal"
                    in2="effect1_backgroundBlur_5918_65977"
                    result="effect2_dropShadow_5918_65977"
            />
            <feBlend
                    mode="normal"
                    in="SourceGraphic"
                    in2="effect2_dropShadow_5918_65977"
                    result="shape"
            />
        </filter>
        <linearGradient
                id="paint0_linear_5918_65977"
                x1="25.1633"
                y1="16.2426"
                x2="63.9642"
                y2="53.6301"
                gradientUnits="userSpaceOnUse"
        >
            <stop stop-color="white" stop-opacity="0.25" />
            <stop offset="1" stop-color="white" stop-opacity="0" />
        </linearGradient>
        <clipPath id="clip0_5918_65977">
            <rect
                    width="24"
                    height="24"
                    fill="white"
                    transform="translate(29.5 21.5)"
            />
        </clipPath>
    </defs>
</svg>