<svg width="178" height="72" viewBox="0 0 178 72" fill="none" xmlns="http://www.w3.org/2000/svg">
<path d="M84.2851 50.0932H77.9731V21.4775H84.2851V50.0932Z" fill="#40B596"/>
<path d="M89.8291 21.4775H98.79L105.465 41.1489L111.973 21.4775H120.731V50.0932H114.825V29.7764L107.794 50.1116H102.932L95.8153 29.9731V50.1116H89.8291V21.4775Z" fill="#40B596"/>
<path d="M151.4 50.0933H144.806L142.556 43.7062H131.905L129.576 50.0933H123.129L134.019 21.4346H140.491L151.4 50.0933ZM137.265 28.4732L133.448 39.1203H141.044L137.265 28.4732Z" fill="#40B596"/>
<path d="M153.809 21.4775H160.201L171.977 40.6509V21.4775H178V50.0932H171.731L159.875 30.8829V50.0932H153.809V21.4775Z" fill="#40B596"/>
<path d="M79.3517 54.6672H78.0745V53.5303H79.3517V54.6672ZM79.3517 60.211H78.0745V55.3697H79.3517V60.211Z" fill="#40B596"/>
<path d="M83.6954 60.2117V57.3886C83.6954 56.7883 83.5932 56.3412 82.878 56.3412C82.1627 56.3412 81.8307 56.916 81.8307 57.6186V60.1733H80.5535V55.3321H81.8307V56.0091C82.0133 55.7542 82.2553 55.5477 82.5358 55.4075C82.8162 55.2673 83.1265 55.1975 83.44 55.2043C83.67 55.1857 83.9013 55.2184 84.1171 55.3C84.333 55.3817 84.528 55.5103 84.6881 55.6765C84.8482 55.8427 84.9693 56.0424 85.0429 56.2612C85.1164 56.48 85.1404 56.7124 85.1131 56.9416V60.1733L83.6954 60.2117Z" fill="#40B596"/>
<path d="M90.4768 55.3701L88.842 60.2114H87.3476L85.6873 55.3701H87.105L88.1267 58.6785L89.1613 55.3701H90.4768Z" fill="#40B596"/>
<path d="M93.4019 60.3517C93.0652 60.3693 92.7287 60.3146 92.415 60.1914C92.1013 60.0681 91.8175 59.8791 91.5828 59.6371C91.3481 59.3952 91.1679 59.1058 91.0543 58.7884C90.9407 58.471 90.8963 58.1329 90.9241 57.797C90.9067 57.4677 90.9566 57.1383 91.0708 56.8289C91.1849 56.5195 91.361 56.2367 91.588 55.9976C91.8151 55.7585 92.0885 55.5682 92.3916 55.4384C92.6947 55.3085 93.0211 55.2417 93.3508 55.2422C94.8196 55.2422 95.752 56.3152 95.752 58.0141V58.1419H92.2779C92.2779 58.9722 92.6994 59.4193 93.4146 59.4193C93.6338 59.4306 93.8504 59.3673 94.029 59.2397C94.2076 59.1121 94.3377 58.9277 94.3981 58.7167H95.6753C95.5393 59.2075 95.2397 59.6371 94.8263 59.9344C94.4129 60.2318 93.9104 60.379 93.4019 60.3517ZM93.4019 56.2002C93.1162 56.2036 92.8433 56.3195 92.6424 56.5227C92.4416 56.726 92.329 57.0002 92.329 57.286H94.3853C94.3887 57.1468 94.3647 57.0082 94.3145 56.8783C94.2643 56.7484 94.1891 56.6296 94.093 56.5287C93.9969 56.4279 93.8819 56.347 93.7545 56.2906C93.6272 56.2343 93.49 56.2035 93.3508 56.2002H93.4019Z" fill="#40B596"/>
<path d="M99.4942 56.7751C99.4176 56.2769 99.111 56.1108 98.5746 56.1108C98.0382 56.1108 97.8211 56.2897 97.8211 56.5963C97.8211 56.9028 98.2425 57.0561 99.0089 57.2094C99.7752 57.3627 100.886 57.6182 100.886 58.7167C100.886 59.8152 100.056 60.3517 98.6768 60.3517C97.2974 60.3517 96.4289 59.8791 96.4033 58.6401H97.6805C97.6805 59.2149 98.102 59.4448 98.7023 59.4448C99.3026 59.4448 99.5836 59.2149 99.5836 58.8444C99.5836 58.474 99.1877 58.359 98.498 58.193C97.8083 58.0269 96.5055 57.8736 96.5055 56.7112C96.5055 55.766 97.2846 55.2295 98.6257 55.2295C99.7369 55.2295 100.695 55.651 100.733 56.7751H99.4942Z" fill="#40B596"/>
<path d="M104.398 56.2765H103.415V58.5503C103.415 59.0229 103.415 59.2401 103.989 59.2401C104.125 59.2524 104.262 59.2524 104.398 59.2401V60.2492C104.13 60.2666 103.861 60.2666 103.594 60.2492C102.444 60.2492 102.086 59.9554 102.086 58.7802V56.2255H101.282V55.3185H102.086V53.8623H103.364V55.3185H104.347L104.398 56.2765Z" fill="#40B596"/>
<g clip-path="url(#clip0_4564_19030)">
<path d="M28.5723 42.9541H17.8003V53.6356H28.5723V42.9541Z" fill="#40B596"/>
<path d="M57.3122 10.4775H10.4752V61.0555H61.0429V10.4775H57.3122ZM29.4744 14.1842H34.8604V19.5775H29.4744V14.1842ZM21.3954 14.1842H24.984V32.1494H39.3507V14.1842H50.1412V17.7797H42.9455V35.7387H21.3954V14.1842ZM32.1674 53.605V57.3117H14.2121V14.2027H17.8006V39.3527H46.5341V21.3875H50.1412V42.942H32.1674V53.605ZM41.1481 57.3117H35.7621V51.9246H41.1481V57.3117ZM50.1289 57.3117H44.7367V51.9246H50.1412L50.1289 57.3117ZM57.3122 57.3117H53.7175V14.2027H57.3122V57.3117Z" fill="#40B596"/>
<path d="M30.5672 10.4776L35.7617 5.28824L40.9501 10.4776H46.231L38.3991 2.64412L35.7452 0L33.1182 2.64412L25.2863 10.4776H30.5672Z" fill="#40B596"/>
<path d="M10.4755 40.959L5.28097 35.7696L10.4755 30.574V25.292L2.64358 33.1255L0 35.7458L2.64358 38.4075L10.4755 46.241V40.959Z" fill="#40B596"/>
<path d="M40.9501 61.0557L35.7617 66.2512L30.5672 61.0557H25.2863L33.1182 68.8892L35.7452 71.4917L38.3991 68.8892L46.231 61.0557H40.9501Z" fill="#40B596"/>
<path d="M68.8754 33.1255L61.0435 25.292V30.574L66.238 35.7696L61.0435 40.959V46.241L68.8754 38.4075L71.492 35.7458L68.8754 33.1255Z" fill="#40B596"/>
</g>
<defs>
<clipPath id="clip0_4564_19030">
<rect width="71.4917" height="71.4917" fill="white"/>
</clipPath>
</defs>
</svg>
