<svg width="32" height="33" viewBox="0 0 32 33" fill="none" xmlns="http://www.w3.org/2000/svg">
<g clip-path="url(#clip0_6510_74044)">
<path d="M16 32.1973C24.8366 32.1973 32 25.0338 32 16.1973C32 7.36071 24.8366 0.197266 16 0.197266C7.16344 0.197266 0 7.36071 0 16.1973C0 25.0338 7.16344 32.1973 16 32.1973Z" fill="#F0F0F0"/>
<path d="M15.3043 16.1974H31.9999C31.9999 14.7533 31.8074 13.3542 31.4488 12.0234H15.3043V16.1974Z" fill="#D80027"/>
<path d="M15.3043 7.84972H29.6516C28.6721 6.25147 27.4198 4.83878 25.9597 3.67578H15.3043V7.84972Z" fill="#D80027"/>
<path d="M15.9999 32.198C19.7655 32.198 23.2265 30.8965 25.9597 28.7197H6.04016C8.77329 30.8965 12.2343 32.198 15.9999 32.198Z" fill="#D80027"/>
<path d="M2.34834 24.545H29.6516C30.4379 23.262 31.0477 21.8595 31.4488 20.3711H0.551147C0.95221 21.8595 1.56202 23.262 2.34834 24.545Z" fill="#D80027"/>
<path d="M7.4115 2.69589H8.86956L7.51331 3.6812L8.03137 5.27552L6.67519 4.2902L5.319 5.27552L5.7665 3.8982C4.57237 4.89289 3.52575 6.05827 2.66325 7.35677H3.13044L2.26712 7.98395C2.13262 8.20833 2.00362 8.43626 1.88 8.66758L2.29225 9.93639L1.52313 9.37758C1.33194 9.78264 1.15706 10.1968 0.999875 10.6196L1.45406 12.0176H3.13044L1.77419 13.003L2.29225 14.5973L0.936063 13.612L0.123687 14.2022C0.042375 14.8558 0 15.5216 0 16.1973H16C16 7.36077 16 6.31902 16 0.197266C12.8393 0.197266 9.89281 1.11414 7.4115 2.69589ZM8.03137 14.5973L6.67519 13.612L5.319 14.5973L5.83706 13.003L4.48081 12.0176H6.15719L6.67519 10.4233L7.19319 12.0176H8.86956L7.51331 13.003L8.03137 14.5973ZM7.51331 8.34208L8.03137 9.93639L6.67519 8.95108L5.319 9.93639L5.83706 8.34208L4.48081 7.35677H6.15719L6.67519 5.76245L7.19319 7.35677H8.86956L7.51331 8.34208ZM13.7705 14.5973L12.4143 13.612L11.0581 14.5973L11.5762 13.003L10.2199 12.0176H11.8963L12.4143 10.4233L12.9323 12.0176H14.6087L13.2524 13.003L13.7705 14.5973ZM13.2524 8.34208L13.7705 9.93639L12.4143 8.95108L11.0581 9.93639L11.5762 8.34208L10.2199 7.35677H11.8963L12.4143 5.76245L12.9323 7.35677H14.6087L13.2524 8.34208ZM13.2524 3.6812L13.7705 5.27552L12.4143 4.2902L11.0581 5.27552L11.5762 3.6812L10.2199 2.69589H11.8963L12.4143 1.10158L12.9323 2.69589H14.6087L13.2524 3.6812Z" fill="#0052B4"/>
</g>
<defs>
<clipPath id="clip0_6510_74044">
<rect width="32" height="32" fill="white" transform="translate(0 0.197266)"/>
</clipPath>
</defs>
</svg>
