<svg width="32" height="32" viewBox="0 0 32 32" fill="none" xmlns="http://www.w3.org/2000/svg">
<g clip-path="url(#clip0_3_103)">
<path d="M0.7555 11.1305C0.265375 12.666 -6.2489e-05 14.3018 1.10347e-08 15.9999C-6.2489e-05 17.698 0.265437 19.3339 0.755562 20.8694L16 21.5652L31.2444 20.8696C31.7345 19.334 32.0001 17.698 32.0001 16C32 14.3019 31.7346 12.666 31.2444 11.1304L16 10.4348L0.7555 11.1305Z" fill="white"/>
<path d="M31.2444 11.1305L15.9999 10.4349L0.755435 11.1305C0.610185 11.5858 0.485123 12.0499 0.38031 12.5218H31.6193C31.5146 12.0499 31.3896 11.5856 31.2444 11.1305Z" fill="#D80027"/>
<path d="M0.380493 19.4782C0.485181 19.9501 0.610243 20.4142 0.755493 20.8694L0.756993 20.8695L15.9999 21.5651L31.2443 20.8695C31.3896 20.4142 31.5146 19.9501 31.6194 19.4782H0.380493Z" fill="#D80027"/>
<path d="M15.9999 31.9999C23.1384 31.9999 29.1841 27.3247 31.2444 20.8695H0.755569C2.81588 27.3247 8.86163 31.9999 15.9999 31.9999V31.9999Z" fill="#6DA544"/>
<path d="M15.9999 6.10358e-05C8.86156 0.000123536 2.81593 4.67531 0.755493 11.1305L31.2443 11.1306C29.1841 4.67525 23.1384 -1.46422e-06 15.9999 6.10358e-05V6.10358e-05Z" fill="#338AF3"/>
<path d="M7.31163 6.60878C7.31163 5.11022 8.36481 3.85834 9.77125 3.55122C9.55513 3.50397 9.33081 3.4784 9.10044 3.4784C7.37156 3.4784 5.97 4.8799 5.97 6.60884C5.97 8.33778 7.37144 9.73928 9.10044 9.73928C9.33081 9.73928 9.55506 9.71365 9.77125 9.66647C8.36488 9.35922 7.31163 8.10734 7.31163 6.60878V6.60878Z" fill="#F0F0F0"/>
<path d="M11.6215 8.03168L11.8334 8.68387H12.5191L11.9644 9.087L12.1763 9.73918L11.6215 9.33612L11.0666 9.73918L11.2786 9.087L10.7238 8.68387H11.4095L11.6215 8.03168Z" fill="#F0F0F0"/>
<path d="M13.8103 8.03168L14.0222 8.68387H14.7079L14.1531 9.087L14.3651 9.73918L13.8103 9.33612L13.2554 9.73918L13.4674 9.087L12.9126 8.68387H13.5983L13.8103 8.03168Z" fill="#F0F0F0"/>
<path d="M15.9991 8.03168L16.2109 8.68387H16.8968L16.3419 9.087L16.5538 9.73918L15.9991 9.33612L15.4442 9.73918L15.6562 9.087L15.1013 8.68387H15.7871L15.9991 8.03168Z" fill="#F0F0F0"/>
<path d="M18.1879 8.03168L18.3998 8.68387H19.0855L18.5308 9.087L18.7427 9.73918L18.1879 9.33612L17.633 9.73918L17.845 9.087L17.2901 8.68387H17.9759L18.1879 8.03168Z" fill="#F0F0F0"/>
<path d="M20.3766 8.03168L20.5886 8.68387H21.2743L20.7196 9.087L20.9315 9.73918L20.3766 9.33612L19.8218 9.73918L20.0338 9.087L19.479 8.68387H20.1647L20.3766 8.03168Z" fill="#F0F0F0"/>
<path d="M13.8103 5.755L14.0222 6.40712H14.7079L14.1531 6.81031L14.3651 7.46243L13.8103 7.05937L13.2554 7.46243L13.4674 6.81031L12.9126 6.40712H13.5983L13.8103 5.755Z" fill="#F0F0F0"/>
<path d="M15.9991 5.755L16.2109 6.40712H16.8968L16.3419 6.81031L16.5538 7.46243L15.9991 7.05937L15.4442 7.46243L15.6562 6.81031L15.1013 6.40712H15.7871L15.9991 5.755Z" fill="#F0F0F0"/>
<path d="M18.1879 5.755L18.3998 6.40712H19.0855L18.5308 6.81031L18.7427 7.46243L18.1879 7.05937L17.633 7.46243L17.845 6.81031L17.2901 6.40712H17.9759L18.1879 5.755Z" fill="#F0F0F0"/>
<path d="M20.3766 5.755L20.5886 6.40712H21.2743L20.7196 6.81031L20.9315 7.46243L20.3766 7.05937L19.8218 7.46243L20.0338 6.81031L19.479 6.40712H20.1647L20.3766 5.755Z" fill="#F0F0F0"/>
<path d="M15.9991 3.47825L16.2109 4.1305H16.8968L16.3419 4.53356L16.5538 5.18581L15.9991 4.78275L15.4442 5.18581L15.6562 4.53356L15.1013 4.1305H15.7871L15.9991 3.47825Z" fill="#F0F0F0"/>
<path d="M18.1879 3.47825L18.3998 4.1305H19.0855L18.5308 4.53356L18.7427 5.18581L18.1879 4.78275L17.633 5.18581L17.845 4.53356L17.2901 4.1305H17.9759L18.1879 3.47825Z" fill="#F0F0F0"/>
<path d="M20.3766 3.47825L20.5886 4.1305H21.2743L20.7196 4.53356L20.9315 5.18581L20.3766 4.78275L19.8218 5.18581L20.0338 4.53356L19.479 4.1305H20.1647L20.3766 3.47825Z" fill="#F0F0F0"/>
</g>
<defs>
<clipPath id="clip0_3_103">
<rect width="32" height="32" fill="white"/>
</clipPath>
</defs>
</svg>
