<svg
        width="16"
        height="16"
        viewBox="0 0 16 16"
        fill="none"
        xmlns="http://www.w3.org/2000/svg"
>
    <g opacity="0.4">
        <path
                d="M12.2499 8.5C12.2499 8.69778 12.1912 8.89112 12.0813 9.05557C11.9714 9.22002 11.8153 9.34819 11.6325 9.42388C11.4498 9.49957 11.2487 9.51937 11.0548 9.48079C10.8608 9.4422 10.6826 9.34696 10.5427 9.20711C10.4029 9.06725 10.3077 8.88907 10.2691 8.69509C10.2305 8.50111 10.2503 8.30004 10.326 8.11732C10.4017 7.93459 10.5298 7.77841 10.6943 7.66853C10.8587 7.55865 11.0521 7.5 11.2499 7.5C11.5151 7.5 11.7694 7.60536 11.957 7.79289C12.1445 7.98043 12.2499 8.23478 12.2499 8.5ZM14.7499 6.25V11.25C14.7499 11.7804 14.5391 12.2891 14.1641 12.6642C13.789 13.0393 13.2803 13.25 12.7499 13.25H3.74985C3.21942 13.25 2.71071 13.0393 2.33564 12.6642C1.96056 12.2891 1.74985 11.7804 1.74985 11.25V3.8075C1.74216 3.54006 1.78821 3.27379 1.88526 3.02446C1.98232 2.77514 2.12842 2.54782 2.31491 2.35597C2.5014 2.16412 2.72449 2.01164 2.97097 1.90755C3.21744 1.80346 3.4823 1.74989 3.74985 1.75H11.9999C12.1988 1.75 12.3895 1.82902 12.5302 1.96967C12.6708 2.11032 12.7499 2.30109 12.7499 2.5C12.7499 2.69891 12.6708 2.88968 12.5302 3.03033C12.3895 3.17098 12.1988 3.25 11.9999 3.25H3.74985C3.6828 3.24996 3.61643 3.26342 3.55468 3.28955C3.49293 3.31569 3.43707 3.35398 3.39043 3.40214C3.34378 3.45031 3.30729 3.50736 3.28314 3.56991C3.25899 3.63247 3.24767 3.69923 3.24985 3.76625V3.77125C3.26035 3.90364 3.32111 4.02699 3.41966 4.11601C3.51821 4.20503 3.64708 4.25297 3.77985 4.25H12.7499C13.2803 4.25 13.789 4.46071 14.1641 4.83579C14.5391 5.21086 14.7499 5.71957 14.7499 6.25ZM13.2499 6.25C13.2499 6.11739 13.1972 5.99021 13.1034 5.89645C13.0096 5.80268 12.8825 5.75 12.7499 5.75H3.77985C3.60103 5.75009 3.42294 5.72741 3.24985 5.6825V11.25C3.24985 11.3826 3.30253 11.5098 3.3963 11.6036C3.49007 11.6973 3.61724 11.75 3.74985 11.75H12.7499C12.8825 11.75 13.0096 11.6973 13.1034 11.6036C13.1972 11.5098 13.2499 11.3826 13.2499 11.25V6.25Z"
                fill="white"
        />
    </g>
</svg>